<mxfile host="app.diagrams.net" agent="Mozilla/5.0 (Windows NT 10.0; Win64; x64) AppleWebKit/537.36 (KHTML, like Gecko) Chrome/139.0.0.0 Safari/537.36" version="28.1.1">
  <diagram name="Page-1" id="FARhHw-Np8QbyITNpKQZ">
    <mxGraphModel dx="1042" dy="562" grid="1" gridSize="10" guides="1" tooltips="1" connect="1" arrows="1" fold="1" page="1" pageScale="1" pageWidth="850" pageHeight="1100" math="0" shadow="0">
      <root>
        <mxCell id="0" />
        <mxCell id="1" parent="0" />
        <mxCell id="lZjFORzeaeY8DDhPI-sn-7" value="" style="edgeStyle=orthogonalEdgeStyle;rounded=0;orthogonalLoop=1;jettySize=auto;html=1;" edge="1" parent="1" source="lZjFORzeaeY8DDhPI-sn-1" target="lZjFORzeaeY8DDhPI-sn-2">
          <mxGeometry relative="1" as="geometry" />
        </mxCell>
        <mxCell id="lZjFORzeaeY8DDhPI-sn-1" value="test" style="ellipse;whiteSpace=wrap;html=1;" vertex="1" parent="1">
          <mxGeometry x="330" y="310" width="120" height="80" as="geometry" />
        </mxCell>
        <mxCell id="lZjFORzeaeY8DDhPI-sn-2" value="" style="ellipse;whiteSpace=wrap;html=1;" vertex="1" parent="1">
          <mxGeometry x="330" y="450" width="120" height="80" as="geometry" />
        </mxCell>
        <mxCell id="lZjFORzeaeY8DDhPI-sn-6" value="" style="edgeStyle=orthogonalEdgeStyle;rounded=0;orthogonalLoop=1;jettySize=auto;html=1;" edge="1" parent="1" source="lZjFORzeaeY8DDhPI-sn-3" target="lZjFORzeaeY8DDhPI-sn-1">
          <mxGeometry relative="1" as="geometry" />
        </mxCell>
        <mxCell id="lZjFORzeaeY8DDhPI-sn-3" value="code" style="ellipse;whiteSpace=wrap;html=1;" vertex="1" parent="1">
          <mxGeometry x="330" y="170" width="120" height="80" as="geometry" />
        </mxCell>
        <mxCell id="lZjFORzeaeY8DDhPI-sn-5" value="" style="edgeStyle=orthogonalEdgeStyle;rounded=0;orthogonalLoop=1;jettySize=auto;html=1;" edge="1" parent="1" source="lZjFORzeaeY8DDhPI-sn-4" target="lZjFORzeaeY8DDhPI-sn-3">
          <mxGeometry relative="1" as="geometry" />
        </mxCell>
        <mxCell id="lZjFORzeaeY8DDhPI-sn-4" value="plan" style="ellipse;whiteSpace=wrap;html=1;" vertex="1" parent="1">
          <mxGeometry x="330" y="30" width="120" height="80" as="geometry" />
        </mxCell>
      </root>
    </mxGraphModel>
  </diagram>
</mxfile>
